<?xml version="1.0" encoding="UTF-8" standalone="no"?>
<!DOCTYPE svg PUBLIC "-//W3C//DTD SVG 1.1//EN"
 "http://www.w3.org/Graphics/SVG/1.1/DTD/svg11.dtd">
<!-- Generated by graphviz version 14.1.2 (0)
 -->
<!-- Title: Research_Framework Pages: 1 -->
<svg width="1430pt" height="390pt"
 viewBox="0.00 0.00 1430.00 390.00" xmlns="http://www.w3.org/2000/svg" xmlns:xlink="http://www.w3.org/1999/xlink">
<g id="graph0" class="graph" transform="scale(1 1) rotate(0) translate(4 386.25)">
<title>Research_Framework</title>
<polygon fill="white" stroke="none" points="-4,4 -4,-386.25 1425.5,-386.25 1425.5,4 -4,4"/>
<!-- RQ -->
<g id="node1" class="node">
<title>RQ</title>
<path fill="#e8e8e8" stroke="#333333" d="M154,-187.5C154,-187.5 12,-187.5 12,-187.5 6,-187.5 0,-181.5 0,-175.5 0,-175.5 0,-124.5 0,-124.5 0,-118.5 6,-112.5 12,-112.5 12,-112.5 154,-112.5 154,-112.5 160,-112.5 166,-118.5 166,-124.5 166,-124.5 166,-175.5 166,-175.5 166,-181.5 160,-187.5 154,-187.5"/>
<text xml:space="preserve" text-anchor="middle" x="83" y="-173.05" font-family="Arial" font-size="11.00">Central Research Question</text>
<text xml:space="preserve" text-anchor="middle" x="83" y="-146.55" font-family="Arial" font-size="11.00">How can ML&#45;derived structures</text>
<text xml:space="preserve" text-anchor="middle" x="83" y="-133.05" font-family="Arial" font-size="11.00">support understanding of</text>
<text xml:space="preserve" text-anchor="middle" x="83" y="-119.55" font-family="Arial" font-size="11.00">complex climate tipping risks?</text>
</g>
<!-- RQ1 -->
<g id="node2" class="node">
<title>RQ1</title>
<path fill="#dceaf7" stroke="#333333" d="M347,-287C347,-287 250,-287 250,-287 244,-287 238,-281 238,-275 238,-275 238,-211 238,-211 238,-205 244,-199 250,-199 250,-199 347,-199 347,-199 353,-199 359,-205 359,-211 359,-211 359,-275 359,-275 359,-281 353,-287 347,-287"/>
<text xml:space="preserve" text-anchor="middle" x="298.5" y="-272.55" font-family="Arial" font-size="11.00">RQ1 — DETECT</text>
<text xml:space="preserve" text-anchor="middle" x="298.5" y="-246.05" font-family="Arial" font-size="11.00">Analytical phase</text>
<text xml:space="preserve" text-anchor="middle" x="298.5" y="-219.55" font-family="Arial" font-size="11.00">Recover latent AMOC</text>
<text xml:space="preserve" text-anchor="middle" x="298.5" y="-206.05" font-family="Arial" font-size="11.00">dynamical structures</text>
</g>
<!-- RQ&#45;&gt;RQ1 -->
<g id="edge1" class="edge">
<title>RQ&#45;&gt;RQ1</title>
<path fill="none" stroke="#555555" d="M166.32,-169.33C226.96,-169.33 298.5,-169.33 298.5,-169.33 298.5,-169.33 298.5,-187.36 298.5,-187.36"/>
<polygon fill="#555555" stroke="#555555" points="295,-187.36 298.5,-197.36 302,-187.36 295,-187.36"/>
</g>
<!-- RQ2 -->
<g id="node6" class="node">
<title>RQ2</title>
<path fill="#f8e6d8" stroke="#333333" d="M566.25,-221C566.25,-221 443,-221 443,-221 437,-221 431,-215 431,-209 431,-209 431,-145 431,-145 431,-139 437,-133 443,-133 443,-133 566.25,-133 566.25,-133 572.25,-133 578.25,-139 578.25,-145 578.25,-145 578.25,-209 578.25,-209 578.25,-215 572.25,-221 566.25,-221"/>
<text xml:space="preserve" text-anchor="middle" x="504.62" y="-206.55" font-family="Arial" font-size="11.00">RQ2 — TRANSLATE</text>
<text xml:space="preserve" text-anchor="middle" x="504.62" y="-180.05" font-family="Arial" font-size="11.00">Design phase</text>
<text xml:space="preserve" text-anchor="middle" x="504.62" y="-153.55" font-family="Arial" font-size="11.00">Transform latent structures</text>
<text xml:space="preserve" text-anchor="middle" x="504.62" y="-140.05" font-family="Arial" font-size="11.00">into perceptual experiences</text>
</g>
<!-- RQ&#45;&gt;RQ2 -->
<g id="edge2" class="edge">
<title>RQ&#45;&gt;RQ2</title>
<path fill="none" stroke="#555555" d="M166.3,-151.17C166.3,-151.17 419.15,-151.17 419.15,-151.17"/>
<polygon fill="#555555" stroke="#555555" points="419.15,-154.67 429.15,-151.17 419.15,-147.67 419.15,-154.67"/>
</g>
<!-- RQ3 -->
<g id="node10" class="node">
<title>RQ3</title>
<path fill="#e9e1f5" stroke="#333333" d="M755.5,-88C755.5,-88 666.75,-88 666.75,-88 660.75,-88 654.75,-82 654.75,-76 654.75,-76 654.75,-12 654.75,-12 654.75,-6 660.75,0 666.75,0 666.75,0 755.5,0 755.5,0 761.5,0 767.5,-6 767.5,-12 767.5,-12 767.5,-76 767.5,-76 767.5,-82 761.5,-88 755.5,-88"/>
<text xml:space="preserve" text-anchor="middle" x="711.12" y="-73.55" font-family="Arial" font-size="11.00">RQ3 — EVALUATE</text>
<text xml:space="preserve" text-anchor="middle" x="711.12" y="-47.05" font-family="Arial" font-size="11.00">Empirical phase</text>
<text xml:space="preserve" text-anchor="middle" x="711.12" y="-20.55" font-family="Arial" font-size="11.00">Investigate human</text>
<text xml:space="preserve" text-anchor="middle" x="711.12" y="-7.05" font-family="Arial" font-size="11.00">understanding</text>
</g>
<!-- RQ&#45;&gt;RQ3 -->
<g id="edge3" class="edge">
<title>RQ&#45;&gt;RQ3</title>
<path fill="none" stroke="#555555" d="M166.23,-116.25C325.45,-116.25 657.5,-116.25 657.5,-116.25 657.5,-116.25 657.5,-99.62 657.5,-99.62"/>
<polygon fill="#555555" stroke="#555555" points="661,-99.62 657.5,-89.62 654,-99.62 661,-99.62"/>
</g>
<!-- DATA -->
<g id="node3" class="node">
<title>DATA</title>
<path fill="#f7f7f7" stroke="#333333" d="M553.5,-341.75C553.5,-341.75 455.75,-341.75 455.75,-341.75 449.75,-341.75 443.75,-335.75 443.75,-329.75 443.75,-329.75 443.75,-292.25 443.75,-292.25 443.75,-286.25 449.75,-280.25 455.75,-280.25 455.75,-280.25 553.5,-280.25 553.5,-280.25 559.5,-280.25 565.5,-286.25 565.5,-292.25 565.5,-292.25 565.5,-329.75 565.5,-329.75 565.5,-335.75 559.5,-341.75 553.5,-341.75"/>
<text xml:space="preserve" text-anchor="middle" x="504.62" y="-327.3" font-family="Arial" font-size="11.00">Data</text>
<text xml:space="preserve" text-anchor="middle" x="504.62" y="-300.8" font-family="Arial" font-size="11.00">RAPID observations</text>
<text xml:space="preserve" text-anchor="middle" x="504.62" y="-287.3" font-family="Arial" font-size="11.00">Copernicus reanalysis</text>
</g>
<!-- RQ1&#45;&gt;DATA -->
<g id="edge4" class="edge">
<title>RQ1&#45;&gt;DATA</title>
<path fill="none" stroke="#555555" d="M359.47,-275.25C420.22,-275.25 504.5,-275.25 504.5,-275.25 504.5,-275.25 504.5,-275.72 504.5,-275.72"/>
<polygon fill="#555555" stroke="#555555" points="501,-268.41 504.5,-278.41 508,-268.41 501,-268.41"/>
</g>
<!-- RQ1&#45;&gt;RQ2 -->
<g id="edge7" class="edge">
<title>RQ1&#45;&gt;RQ2</title>
<path fill="none" stroke="#555555" d="M359.23,-210C359.23,-210 419.32,-210 419.32,-210"/>
<polygon fill="#555555" stroke="#555555" points="419.32,-213.5 429.32,-210 419.32,-206.5 419.32,-213.5"/>
</g>
<!-- ML -->
<g id="node4" class="node">
<title>ML</title>
<path fill="#f7f7f7" stroke="#333333" d="M760,-382.25C760,-382.25 662.25,-382.25 662.25,-382.25 656.25,-382.25 650.25,-376.25 650.25,-370.25 650.25,-370.25 650.25,-305.75 650.25,-305.75 650.25,-299.75 656.25,-293.75 662.25,-293.75 662.25,-293.75 760,-293.75 760,-293.75 766,-293.75 772,-299.75 772,-305.75 772,-305.75 772,-370.25 772,-370.25 772,-376.25 766,-382.25 760,-382.25"/>
<text xml:space="preserve" text-anchor="middle" x="711.12" y="-367.8" font-family="Arial" font-size="11.00">Methods</text>
<text xml:space="preserve" text-anchor="middle" x="711.12" y="-341.3" font-family="Arial" font-size="11.00">PCA</text>
<text xml:space="preserve" text-anchor="middle" x="711.12" y="-327.8" font-family="Arial" font-size="11.00">Autoencoder</text>
<text xml:space="preserve" text-anchor="middle" x="711.12" y="-314.3" font-family="Arial" font-size="11.00">Early Warning Signals</text>
<text xml:space="preserve" text-anchor="middle" x="711.12" y="-300.8" font-family="Arial" font-size="11.00">Anomaly detection</text>
</g>
<!-- DATA&#45;&gt;ML -->
<g id="edge5" class="edge">
<title>DATA&#45;&gt;ML</title>
<path fill="none" stroke="#555555" d="M565.74,-317.75C565.74,-317.75 638.29,-317.75 638.29,-317.75"/>
<polygon fill="#555555" stroke="#555555" points="638.29,-321.25 648.29,-317.75 638.29,-314.25 638.29,-321.25"/>
</g>
<!-- H -->
<g id="node5" class="node">
<title>H</title>
<path fill="#eaf4ea" stroke="#333333" d="M1162.12,-371.75C1162.12,-371.75 1095.88,-371.75 1095.88,-371.75 1089.88,-371.75 1083.88,-365.75 1083.88,-359.75 1083.88,-359.75 1083.88,-282.25 1083.88,-282.25 1083.88,-276.25 1089.88,-270.25 1095.88,-270.25 1095.88,-270.25 1162.12,-270.25 1162.12,-270.25 1168.12,-270.25 1174.12,-276.25 1174.12,-282.25 1174.12,-282.25 1174.12,-359.75 1174.12,-359.75 1174.12,-365.75 1168.12,-371.75 1162.12,-371.75"/>
<text xml:space="preserve" text-anchor="middle" x="1129" y="-357.3" font-family="Arial" font-size="11.00">Hypotheses</text>
<text xml:space="preserve" text-anchor="middle" x="1129" y="-330.8" font-family="Arial" font-size="11.00">H1–H3</text>
<text xml:space="preserve" text-anchor="middle" x="1129" y="-304.3" font-family="Arial" font-size="11.00">Latent modes,</text>
<text xml:space="preserve" text-anchor="middle" x="1129" y="-290.8" font-family="Arial" font-size="11.00">non&#45;linearity,</text>
<text xml:space="preserve" text-anchor="middle" x="1129" y="-277.3" font-family="Arial" font-size="11.00">warning signals</text>
</g>
<!-- ML&#45;&gt;H -->
<g id="edge6" class="edge">
<title>ML&#45;&gt;H</title>
<path fill="none" stroke="#555555" d="M772.34,-332.75C772.34,-332.75 1071.9,-332.75 1071.9,-332.75"/>
<polygon fill="#555555" stroke="#555555" points="1071.9,-336.25 1081.9,-332.75 1071.9,-329.25 1071.9,-336.25"/>
</g>
<!-- OUT -->
<g id="node13" class="node">
<title>OUT</title>
<path fill="#fff2cc" stroke="#333333" d="M1409.5,-235C1409.5,-235 1287,-235 1287,-235 1281,-235 1275,-229 1275,-223 1275,-223 1275,-159 1275,-159 1275,-153 1281,-147 1287,-147 1287,-147 1409.5,-147 1409.5,-147 1415.5,-147 1421.5,-153 1421.5,-159 1421.5,-159 1421.5,-223 1421.5,-223 1421.5,-229 1415.5,-235 1409.5,-235"/>
<text xml:space="preserve" text-anchor="middle" x="1348.25" y="-220.55" font-family="Arial" font-size="11.00">Contribution</text>
<text xml:space="preserve" text-anchor="middle" x="1348.25" y="-194.05" font-family="Arial" font-size="11.00">ML as perceptual layer</text>
<text xml:space="preserve" text-anchor="middle" x="1348.25" y="-167.55" font-family="Arial" font-size="11.00">From invisible dynamics</text>
<text xml:space="preserve" text-anchor="middle" x="1348.25" y="-154.05" font-family="Arial" font-size="11.00">to embodied understanding</text>
</g>
<!-- H&#45;&gt;OUT -->
<g id="edge14" class="edge">
<title>H&#45;&gt;OUT</title>
<path fill="none" stroke="#555555" d="M1174.48,-321C1238.77,-321 1348.5,-321 1348.5,-321 1348.5,-321 1348.5,-246.89 1348.5,-246.89"/>
<polygon fill="#555555" stroke="#555555" points="1352,-246.89 1348.5,-236.89 1345,-246.89 1352,-246.89"/>
</g>
<!-- DESIGN -->
<g id="node7" class="node">
<title>DESIGN</title>
<path fill="#f7f7f7" stroke="#333333" d="M747.25,-262C747.25,-262 675,-262 675,-262 669,-262 663,-256 663,-250 663,-250 663,-132 663,-132 663,-126 669,-120 675,-120 675,-120 747.25,-120 747.25,-120 753.25,-120 759.25,-126 759.25,-132 759.25,-132 759.25,-250 759.25,-250 759.25,-256 753.25,-262 747.25,-262"/>
<text xml:space="preserve" text-anchor="middle" x="711.12" y="-247.55" font-family="Arial" font-size="11.00">Design grammar</text>
<text xml:space="preserve" text-anchor="middle" x="711.12" y="-221.05" font-family="Arial" font-size="11.00">Latent position</text>
<text xml:space="preserve" text-anchor="middle" x="711.12" y="-207.55" font-family="Arial" font-size="11.00">Anomaly score</text>
<text xml:space="preserve" text-anchor="middle" x="711.12" y="-194.05" font-family="Arial" font-size="11.00">Uncertainty</text>
<text xml:space="preserve" text-anchor="middle" x="711.12" y="-167.55" font-family="Arial" font-size="11.00">→ colour</text>
<text xml:space="preserve" text-anchor="middle" x="711.12" y="-154.05" font-family="Arial" font-size="11.00">→ motion</text>
<text xml:space="preserve" text-anchor="middle" x="711.12" y="-140.55" font-family="Arial" font-size="11.00">→ sound</text>
<text xml:space="preserve" text-anchor="middle" x="711.12" y="-127.05" font-family="Arial" font-size="11.00">→ density</text>
</g>
<!-- RQ2&#45;&gt;DESIGN -->
<g id="edge8" class="edge">
<title>RQ2&#45;&gt;DESIGN</title>
<path fill="none" stroke="#555555" d="M578.59,-191.67C578.59,-191.67 651.28,-191.67 651.28,-191.67"/>
<polygon fill="#555555" stroke="#555555" points="651.28,-195.17 661.28,-191.67 651.28,-188.17 651.28,-195.17"/>
</g>
<!-- RQ2&#45;&gt;RQ3 -->
<g id="edge11" class="edge">
<title>RQ2&#45;&gt;RQ3</title>
<path fill="none" stroke="#555555" d="M578.45,-162.33C618.74,-162.33 660.5,-162.33 660.5,-162.33 660.5,-162.33 660.5,-99.91 660.5,-99.91"/>
<polygon fill="#555555" stroke="#555555" points="664,-99.91 660.5,-89.91 657,-99.91 664,-99.91"/>
</g>
<!-- COND -->
<g id="node8" class="node">
<title>COND</title>
<path fill="#f7f7f7" stroke="#333333" d="M971,-228.5C971,-228.5 856,-228.5 856,-228.5 850,-228.5 844,-222.5 844,-216.5 844,-216.5 844,-165.5 844,-165.5 844,-159.5 850,-153.5 856,-153.5 856,-153.5 971,-153.5 971,-153.5 977,-153.5 983,-159.5 983,-165.5 983,-165.5 983,-216.5 983,-216.5 983,-222.5 977,-228.5 971,-228.5"/>
<text xml:space="preserve" text-anchor="middle" x="913.5" y="-214.05" font-family="Arial" font-size="11.00">Three conditions</text>
<text xml:space="preserve" text-anchor="middle" x="913.5" y="-187.55" font-family="Arial" font-size="11.00">C1 Static</text>
<text xml:space="preserve" text-anchor="middle" x="913.5" y="-174.05" font-family="Arial" font-size="11.00">C2 Interactive</text>
<text xml:space="preserve" text-anchor="middle" x="913.5" y="-160.55" font-family="Arial" font-size="11.00">C3 ML&#45;driven experiential</text>
</g>
<!-- DESIGN&#45;&gt;COND -->
<g id="edge9" class="edge">
<title>DESIGN&#45;&gt;COND</title>
<path fill="none" stroke="#555555" d="M759.6,-191C759.6,-191 832.09,-191 832.09,-191"/>
<polygon fill="#555555" stroke="#555555" points="832.09,-194.5 842.09,-191 832.09,-187.5 832.09,-194.5"/>
</g>
<!-- DP -->
<g id="node9" class="node">
<title>DP</title>
<path fill="#eaf4ea" stroke="#333333" d="M1172.25,-221.75C1172.25,-221.75 1085.75,-221.75 1085.75,-221.75 1079.75,-221.75 1073.75,-215.75 1073.75,-209.75 1073.75,-209.75 1073.75,-172.25 1073.75,-172.25 1073.75,-166.25 1079.75,-160.25 1085.75,-160.25 1085.75,-160.25 1172.25,-160.25 1172.25,-160.25 1178.25,-160.25 1184.25,-166.25 1184.25,-172.25 1184.25,-172.25 1184.25,-209.75 1184.25,-209.75 1184.25,-215.75 1178.25,-221.75 1172.25,-221.75"/>
<text xml:space="preserve" text-anchor="middle" x="1129" y="-207.3" font-family="Arial" font-size="11.00">Design propositions</text>
<text xml:space="preserve" text-anchor="middle" x="1129" y="-180.8" font-family="Arial" font-size="11.00">DP2.1</text>
<text xml:space="preserve" text-anchor="middle" x="1129" y="-167.3" font-family="Arial" font-size="11.00">DP2.2</text>
</g>
<!-- COND&#45;&gt;DP -->
<g id="edge10" class="edge">
<title>COND&#45;&gt;DP</title>
<path fill="none" stroke="#555555" d="M983.47,-191C983.47,-191 1061.84,-191 1061.84,-191"/>
<polygon fill="#555555" stroke="#555555" points="1061.84,-194.5 1071.84,-191 1061.84,-187.5 1061.84,-194.5"/>
</g>
<!-- DP&#45;&gt;OUT -->
<g id="edge15" class="edge">
<title>DP&#45;&gt;OUT</title>
<path fill="none" stroke="#555555" d="M1184.61,-201.25C1184.61,-201.25 1263.37,-201.25 1263.37,-201.25"/>
<polygon fill="#555555" stroke="#555555" points="1263.37,-204.75 1273.37,-201.25 1263.37,-197.75 1263.37,-204.75"/>
</g>
<!-- USER -->
<g id="node11" class="node">
<title>USER</title>
<path fill="#f7f7f7" stroke="#333333" d="M952.25,-108.75C952.25,-108.75 874.75,-108.75 874.75,-108.75 868.75,-108.75 862.75,-102.75 862.75,-96.75 862.75,-96.75 862.75,-19.25 862.75,-19.25 862.75,-13.25 868.75,-7.25 874.75,-7.25 874.75,-7.25 952.25,-7.25 952.25,-7.25 958.25,-7.25 964.25,-13.25 964.25,-19.25 964.25,-19.25 964.25,-96.75 964.25,-96.75 964.25,-102.75 958.25,-108.75 952.25,-108.75"/>
<text xml:space="preserve" text-anchor="middle" x="913.5" y="-94.3" font-family="Arial" font-size="11.00">User study</text>
<text xml:space="preserve" text-anchor="middle" x="913.5" y="-67.8" font-family="Arial" font-size="11.00">8–12 participants</text>
<text xml:space="preserve" text-anchor="middle" x="913.5" y="-41.3" font-family="Arial" font-size="11.00">Think&#45;aloud</text>
<text xml:space="preserve" text-anchor="middle" x="913.5" y="-27.8" font-family="Arial" font-size="11.00">Interviews</text>
<text xml:space="preserve" text-anchor="middle" x="913.5" y="-14.3" font-family="Arial" font-size="11.00">Thematic analysis</text>
</g>
<!-- RQ3&#45;&gt;USER -->
<g id="edge12" class="edge">
<title>RQ3&#45;&gt;USER</title>
<path fill="none" stroke="#555555" d="M767.77,-47.62C767.77,-47.62 850.89,-47.62 850.89,-47.62"/>
<polygon fill="#555555" stroke="#555555" points="850.89,-51.13 860.89,-47.63 850.89,-44.13 850.89,-51.13"/>
</g>
<!-- E -->
<g id="node12" class="node">
<title>E</title>
<path fill="#eaf4ea" stroke="#333333" d="M1191,-124.75C1191,-124.75 1067,-124.75 1067,-124.75 1061,-124.75 1055,-118.75 1055,-112.75 1055,-112.75 1055,-35.25 1055,-35.25 1055,-29.25 1061,-23.25 1067,-23.25 1067,-23.25 1191,-23.25 1191,-23.25 1197,-23.25 1203,-29.25 1203,-35.25 1203,-35.25 1203,-112.75 1203,-112.75 1203,-118.75 1197,-124.75 1191,-124.75"/>
<text xml:space="preserve" text-anchor="middle" x="1129" y="-110.3" font-family="Arial" font-size="11.00">Expectations</text>
<text xml:space="preserve" text-anchor="middle" x="1129" y="-83.8" font-family="Arial" font-size="11.00">E3.1</text>
<text xml:space="preserve" text-anchor="middle" x="1129" y="-70.3" font-family="Arial" font-size="11.00">E3.2</text>
<text xml:space="preserve" text-anchor="middle" x="1129" y="-43.8" font-family="Arial" font-size="11.00">Interpretation of</text>
<text xml:space="preserve" text-anchor="middle" x="1129" y="-30.3" font-family="Arial" font-size="11.00">experiential representations</text>
</g>
<!-- USER&#45;&gt;E -->
<g id="edge13" class="edge">
<title>USER&#45;&gt;E</title>
<path fill="none" stroke="#555555" d="M964.57,-66C964.57,-66 1043.12,-66 1043.12,-66"/>
<polygon fill="#555555" stroke="#555555" points="1043.12,-69.5 1053.12,-66 1043.12,-62.5 1043.12,-69.5"/>
</g>
<!-- E&#45;&gt;OUT -->
<g id="edge16" class="edge">
<title>E&#45;&gt;OUT</title>
<path fill="none" stroke="#555555" d="M1193.5,-125.19C1193.5,-152.58 1193.5,-180.75 1193.5,-180.75 1193.5,-180.75 1262.99,-180.75 1262.99,-180.75"/>
<polygon fill="#555555" stroke="#555555" points="1262.99,-184.25 1272.99,-180.75 1262.99,-177.25 1262.99,-184.25"/>
</g>
</g>
</svg>
